<svg xmlns="http://www.w3.org/2000/svg" width="1482.481" height="1288.21" enable-background="new 0 0 1600 1200" viewBox="46.604 -1.755 1482.481 1288.21"><ellipse cx="681.9" cy="429.9" fill="#dc952d" rx="193.4" ry="189.5" transform="rotate(-8.11 681.937 429.833)"/><ellipse cx="698.9" cy="428.1" fill="#fcc84e" rx="193.4" ry="189.5" transform="rotate(-8.11 698.94 428.013)"/><path fill="#fef04f" d="M507,448.8c82.2-67.7,164.4-135.3,246.7-203c11.8,3.5,25.8,8.8,40.7,16.9c8.6,4.7,16.1,9.6,22.6,14.4    L529.7,517.9C529.7,517.9,508.6,494.7,507,448.8z"/><path fill="#f59e1b" d="M594.4,588.1c94.4-77.9,188.8-155.9,283.1-233.8c4,9.7,7.9,21.4,10.7,34.8c1.4,6.9,2.4,13.5,3.1,19.6    c-80.7,67.6-161.4,135.3-242.1,202.9c-6.2-1.5-13-3.6-20.1-6.2C615.2,600.2,603.7,594,594.4,588.1z"/><circle cx="700.4" cy="429.3" r="145.2" fill="#d2753f"/><ellipse cx="708.5" cy="429.2" fill="#fdaa40" rx="138.8" ry="139.1" transform="rotate(-8.11 708.562 429.143)"/><path fill="#d2753f" d="M699.6,368.5c0,0,12.8,3.7,19.8,8c7,4.3,20.3-0.1,17.3-13c-3-12.9-16.2-17.7-24.5-19.3    c-8.3-1.6-12.2-1.6-12.2-1.6l-2.3-0.5l-2.3-15.8c0,0-4.4-3.8-12.6-4.6c-8.2-0.8-11.8,8.6-11.8,8.6l3,17.4c0,0-40.6,11.6-34.5,48.6    c6.1,37,42.1,35.5,42.1,35.5s48.9-8.1,54,21.5c5.1,29.6-20.9,40.5-33,38.1s-25.2-1.1-35-18.9s-24.8-0.1-24.9,3.3    c-0.1,3.4,10.7,28.2,28.4,37.1c0,0,9.2,4.2,16.2,4.4c7,0.1,9.1-0.7,9.1-0.7l3,18.8c0,0,1.8,2.8,11.7,3.9    c9.9,1.1,13.7-7.2,13.7-7.2l-2.5-19.7c0,0,30.9-4.1,40.4-48.1s-38.5-59.3-57-58.4c-18.5,1-39.7,6.8-39.4-18.9    C666.4,383.3,676.2,366,699.6,368.5z"/><path fill="#fecb51" d="M709.2,367.6c0,0,12.8,3.7,19.8,8c7,4.3,20.3-0.1,17.3-13c-3-12.9-16.2-17.7-24.5-19.3    c-8.3-1.6-12.2-1.6-12.2-1.6l-2.3-0.5l-2.3-15.8c0,0-4.4-3.8-12.6-4.6c-8.2-0.8-11.8,8.6-11.8,8.6l3,17.4c0,0-40.6,11.6-34.5,48.6    s42.1,35.5,42.1,35.5s48.9-8.1,54,21.5c5.1,29.6-20.9,40.5-33,38.1s-25.2-1.1-35-18.9c-9.8-17.8-24.8-0.1-24.9,3.3    c-0.1,3.4,10.7,28.2,28.4,37.1c0,0,9.2,4.2,16.2,4.4c7,0.1,9.1-0.7,9.1-0.7l3,18.8c0,0,1.8,2.8,11.7,3.9    c9.9,1.1,13.7-7.2,13.7-7.2l-2.5-19.7c0,0,30.9-4.1,40.4-48.1c9.6-43.9-38.5-59.3-57-58.4c-18.5,1-39.7,6.8-39.4-18.9    C675.9,382.4,685.7,365.1,709.2,367.6z"/><g><path fill="#feabb5" d="M831.5,1096.3l7.1,33.9l2,17.5l34.4-2.2c0,0-3.5-44.4-7-54.8S831.5,1096.3,831.5,1096.3z"/><polygon fill="#feabb5" points="1088.7 1051.6 1117.1 1056.6 1116.7 1092.9 1068.8 1087.4 1077.7 1056.6 1079 1049.5"/><path fill="#feabb5" d="M837.1,255.1c0.9,12.9,1.9,25.8,2.8,38.7c2.7,4.2,5.4,8.4,8.2,12.6c19.1-1,38.2-1.9,57.2-2.9l-1.1-3    l-19.6-54.6L837.1,255.1z"/><path fill="#fe8d90" d="M843.1,296.6c0,0,8.3,1.2,20.3,3.3s23.9,1.7,28,0.9c4.1-0.8,12.5-2.1,12.5-2.1l1.5,4.8c0,0-43.9,2.1-45,2.1    s-11.6-3.8-11.6-3.8L843.1,296.6z"/><path fill="#fff" d="M840,293.8c-0.3,0.7-0.6,1.6-0.5,2.8c0.3,3.2,3.7,5.3,4.7,5.9c0.4,0.3,4.7,5.8,13.3,16.7    c0,0,8.3,10.6,17,30.5c8.3,19,18.2,64.2,15,122.6c-0.8,15-5.3,73.9-29.7,131c-4.4,10.3-8.3,18.2-10.9,23.3    c-13,25.9-40.5,73-40.5,73c0,0,6.3,15.5,67.8,8.9s73.6-22,73.6-22l0.6-2.4l-6.9-192.2l-36.6-191c-7.2,1.9-18.1,3.9-31.4,2.9    C859.4,302.6,847.2,297.4,840,293.8z"/><path fill="#4f2926" d="M799.8,633.4c0,0-122.2,192.5-127.5,237.4c-5.3,44.9,13.3,55.9,21.3,64.2c8,8.3,137.3,172.4,137.3,172.4    s20.8,3.7,35.9,0c15.1-3.7,17.3-11.5,17.3-11.5S782.7,911.6,780.3,886.2c-2.7-27.5,63.1-124.5,63.1-124.5s39.2,198.7,41.8,211.1    s185.6,132.7,185.6,132.7s12-7.3,23.5-28c11.5-20.6,11.5-36.7,11.5-36.7L959.6,934.6c0,0,21.3-150.3,21.3-206.3    c0,0-0.9-21.5-2.2-29.3c-1.3-7.8-72.6-56.4-121.8-67.8C807.7,619.7,799.8,633.4,799.8,633.4z"/><path fill="#feabb5" d="M866.2,116.2c-1.3-2-40,29.6-52.8,64.8c-12.8,35.2-4.7,62.4,14.1,70.3c18.8,7.9,40.8,2.4,47.8-0.8    c7.1-3.2,25.1-12.2,25.9-14.5c0.8-2.4,7.8,2.6,18.5-5.3c10.7-7.9,10.2-16.7,3.1-26.4l-4.2-5.6c0,0,11-26,11.6-35    c0.6-8.9-5.3-11.5-11.8-13.7C912.1,147.8,883.9,144.6,866.2,116.2z"/><path fill="#fe8d90" d="M861.5,114.2c0,0-1.6,4.4,2.6,11.6c4.2,7.2,17,18.6,28.2,22.4s29.4,4,30.1,10.3s-2.3,19.8-3.3,23.1    c-1.1,3.3,0,14.2,0,14.2s13.5-24,13.5-26.8c0-2.8,3-14.7-6.8-20.5c-9.8-5.8-27.8-7.7-28.5-8.1    C896.5,140.1,861.5,114.2,861.5,114.2z"/><path fill="#4f2926" d="M874,61c0,0-17.6,13.7-19.2,36.5c-1.5,22.8,26.8,41.3,37,45.2c10.2,4,27.6,7.7,27.6,7.7s9.2,4.8,7.7,15.9    c-1.5,11.1-10.4,31.8-10.4,31.8s13.1,11,7.9,24.1c-5.2,13.1-20.7,13.5-24.1,12.3c0,0-9.6,7-12.8,8.7c0,0,6.2,9.9,38.9,0.4    s46.2-40,49.6-49.5c3.4-9.5,6.3-38.5-10.2-54.9s-27.8-13.3-25.9-37.7c1.9-24.4-16.9-24.2-18-24.2s-24.6,4.5-24.6,4.5    s-8.6-5.3-11.4-13.9s-7.9-11.1-7.9-11.1L874,61z"/><path fill="none" stroke="#fff" stroke-miterlimit="10" stroke-width="3" d="M924.5,659.1c0,0-3.5,48,14.4,73.5c17.9,25.6,38.5,24.5,38.5,24.5s6.3-53.9-2.5-68.6    c-8.8-14.7-52.2-30.5-52.2-30.5L924.5,659.1z"/><path fill="#5670c4" d="M906.8,300.9c0,0,36.3-11.2,66.5,19.8c30.1,30.9,64,78.4,78.6,153s1.1,138-15.7,164.2    c-16.9,26.2-36.8,46.8-52.1,57.5c-15.3,10.7-15.3,10.7-15.3,10.7s-24.1-19.8-29.5-59.5c-5.4-39.7,4.2-59.5,4.2-59.5l-38.1-283.6    C905.4,303.5,905,300.7,906.8,300.9z"/><path fill="#c92615" d="M913.4,558.6c4.1-1.3,40.4-8.7,64.6-36.8s31.4-98.9,25-134.3c-6.4-35.4-18.9-60-36-72.2    C949.9,303.1,913.4,558.6,913.4,558.6z"/><path fill="#feabb5" d="M772.1,596.6c-0.6,0.4-15.3,10.1-21.8,9.1c-6.5-1-26.6-12.5-35.8-8.3c-9.2,4.2-10.5,14.7-1.9,20.2    c8.6,5.6,14.8,6.5,14.8,6.5s-21.5,11.7-25.1,10.7c-3.6-1-8.2-4.8-12.1-3c-3.8,1.8-11.7,32.1,11.3,44.4c23,12.3,43.3,14.5,60.6,8.7    c17.2-5.8,34.1-10.7,43.1-18c9-7.3,9.8-11.3,9.8-11.3l-0.6-4.2L772.1,596.6z"/><path fill="#fe8d90" d="M793.9,615.7c-0.4,1.1,5.3,38.2-13,50.1c-18.2,11.9-39.6,17.5-48,17.9c-8.4,0.4-25.2-4.2-25.2-4.2    s25.8,13.5,55.2,4.8c0,0,24.4-6,39.1-15.2c14.7-9.2,14.7-17.9,14.7-17.9L793.9,615.7z"/><path fill="#f0512a" d="M921.7,299.7c0,0-27,11.3-30.5,60.7c-3.4,49.4-1.1,101.2-8,119.4c-6.9,18.2-114.6,106.3-114.6,106.3    s0.4,26.2,23.8,48.8c23.4,22.6,22.6,18.6,22.6,18.6s122.3-65.8,132-74.8c27.8-25.4,29.5-60.3,36.2-89.3    c7.6-32.7,15.3-87,2.2-155.7c-6.7-8.2-13.1-14.2-18-18.3c-8.1-6.7-15.3-11.1-22.4-14.3c-9.7-4.3-15.6-4.9-20.6-2.9    C923.2,298.8,922.3,299.3,921.7,299.7z"/><path fill="none" stroke="#4f2926" stroke-miterlimit="10" d="M853.8 136.8c0 0 12.9 7 15.8 11.8s5.5 8.5 5 12c-.5 3.6-5.9 17.2-8.7 21.4-2.8 4.2-9.3 11.5-10.9 12.8-1.5 1.3-1.5 1.3-1.5 1.3M891.9 170.8c0 0 9.1-1.2 13.7 2.9s7.1 13.4 7.1 13.4"/><ellipse cx="846.9" cy="163.4" fill="#4f2926" rx="11.6" ry="9.3" transform="rotate(-63.801 846.927 163.386)"/><ellipse cx="894.7" cy="193.5" fill="#4f2926" rx="11.6" ry="9.3" transform="rotate(-63.801 894.683 193.494)"/><ellipse cx="826.4" cy="194.6" fill="#fe8d90" rx="12.6" ry="12.7"/><ellipse cx="881" cy="222.6" fill="#fe8d90" rx="12.6" ry="12.7"/><path fill="none" stroke="#4f2926" stroke-miterlimit="10" d="M836.9,207.2c0,0,4.2,10.3,8.8,13.9c4.6,3.6,12.6,4.1,12.6,4.1"/><path fill="#f0512a" d="M1112.2 1052.3c-2.6.2-.9 35.8-.9 35.8l-17.7.5c0 0-2.2 5.5-.4 11.9 1.8 6.4 14.6 25.2 14.6 25.2s-.4 53.6 2.2 59.1 14.6-8.3 21.7-23.8c7.1-15.6 20.6-69.9 23.3-81.8 2.7-11.9 2.7-16 2.7-16S1159 1047.9 1112.2 1052.3zM838 1123.4c0 0 7.6 18.9 14.6 18.9s20.9-14.8 20.9-14.8 6.3-2.1 7.3.3c1 2.4 2 54.7 2 54.7s-53.8-2.8-78.4-3.1c-24.6-.3-39.2-5.8-41.2-10-2-4.1 1-8.9 4.3-8.9 3.3 0 31.2-4.3 37-6 5.8-1.7 30.7-32.5 30.7-32.5L838 1123.4z"/><path fill="#fe8d90" d="M837.1,254.6c0,0,15.1-0.8,22.8-3.3c7.7-2.5,14.6-6.2,14.6-6.2s-1.5,10.5-16.4,15.6c-14.9,5.1-20,4.8-20,4.8    l-1-10.4L837.1,254.6z"/><path fill="none" stroke="#fe8d90" stroke-miterlimit="10" d="M910.5,206.9c0,0,7.3,5,6.5,10.6c-0.8,5.6-3.9,7.9-6.7,6.2s-5.2-6-3.9-7.5c1.3-1.5,6-3.9,6.5-0.6    c0.4,3.2-2.5,2.8-2.5,2.8"/><ellipse cx="825.1" cy="1141" fill="#f9ecdc" rx="3.7" ry="3"/><ellipse cx="819.2" cy="1148.3" fill="#f9ecdc" rx="3.2" ry="2.6"/><ellipse cx="812.6" cy="1154.2" fill="#f9ecdc" rx="2.9" ry="2.6"/><ellipse cx="1101" cy="1097.5" fill="#f9ecdc" rx="3.7" ry="3" transform="rotate(-69.929 1100.983 1097.422)"/><ellipse cx="1105.8" cy="1105.5" fill="#f9ecdc" rx="3.2" ry="2.6" transform="rotate(-69.929 1105.799 1105.472)"/><ellipse cx="1109.1" cy="1113.7" fill="#f9ecdc" rx="2.9" ry="2.6" transform="rotate(-69.929 1109.095 1113.664)"/></g><g><path fill="#529a74" d="M138.5,1011.6c0,0,45,28.1,101.8,4.6c0,0,22.6-10.4,40.9-39.6s17.8-29.1,28.3-23.9   c10.4,5.2,10.4,103.1,10.4,103.1l14.4,0.9c0,0,0-85.7-12.6-111.8c0,0-3.5-21.7-12.2-23.5s-26.1-3-57.4,10.9   c-31.3,13.9-34.8-6.1-76.1,10s-56.5,40.4-60.9,57.4s5.7,35.7,5.7,35.7S119.4,1023.1,138.5,1011.6z"/><path fill="none" stroke="#328a5a" stroke-miterlimit="10" stroke-width="3" d="M124.1,1011.8c1.3-3.9,11.7-13.5,77-22.2c65.2-8.7,84.8-48.7,94.4-50"/><path fill="#529a74" d="M195.5,810c3.5-0.6,10,24.8,47.8,44.8s57,22.2,68.7,19.6c11.7-2.6,20-14.4,23.9-12.6s3.9,190.5,3.9,190.5   h13.9c0,0-2.2-194.4-3.9-198.3c-1.7-3.9-7.4-17.8-41.8-40.4s-59.2-47-102.6-36.5c0,0-19.1,7-28.7,20.9c-9.6,13.9-3.9,22.6-3.9,22.6   S171.1,813.9,195.5,810z"/><path fill="none" stroke="#328a5a" stroke-miterlimit="10" stroke-width="3" d="M187.2,800.5c0,0,50.9-7.4,84.4,17.4c33.5,24.8,50,34.8,50,34.8"/><path fill="#328a5a" d="M362.3,1054c-3.9-7.2-1.6-235.5,0-242.4c1.6-6.9,2.9-17,33.9-27.7s103.1-75,133.1-71.4   c30,3.6,62.3,32.9,61.7,42.7c-0.7,9.8-18.3,5.9-33.9,7.5c-15.7,1.6-24.5,22.8-45,50.9c-20.6,28.1-56.4,38.5-93.3,26.1   s-41.8-19.6-41.8-19.6l-6.2,235.2L362.3,1054z"/><path fill="#529a74" d="M383.4,1055.8c-2.2-5.2,16.5-155.7,6.5-209.2s-6.5-67.8-29.1-76.5c-22.6-8.7-71.8-43.5-82.2-78.3   c-10.4-34.8-11.7-54.4-13-56.5s-3.5-8.7-13.9,1.7c-10.4,10.4-14.8-4.3,0.4-24.8s30.4-26.1,57-8.3s70.5,67.4,80.5,93.1   c10,25.7-0.9,64.8,0,76.1c0.9,11.3,16.5,75.7,19.6,121.8c3,46.1-10,160.5-10,160.5L383.4,1055.8z"/><path fill="none" stroke="#000" stroke-miterlimit="10" d="M406,1057.1"/><path fill="#529a74" d="M381.8,817.2c0,0,63.6,12.1,84.5,2c20.9-10.1,52.8-82.2,72.4-86.1c19.6-3.9,52.2,23.8,52.2,23.8   s0.7,6.5-20.6,5.9s-25.4,2.6-39.8,23.8c-14.4,21.2-27.1,47-58.4,54.1c-31.3,7.2-51.9,0.7-68.2-5.9c-16.3-6.5-27.1-14.7-27.1-14.7   L381.8,817.2z"/><path fill="none" stroke="#328a5a" stroke-miterlimit="10" stroke-width="3" d="M277.7,613.9c0,0,60.9,64.8,74.4,97c13.5,32.2,19.1,50.9,19.1,50.9"/><path fill="#328a5a" d="M242.9 635.6c.4-5.2 19.6-47 50.9-20.4s30.9 51.8 55.2 73.5c24.4 21.7 33.1 34.8 31.8 50.9s.9 36.1 6.5 45.2c5.7 9.1 7 8.7 5.7 9.1s-4.6-23.1-4.6-23.1 14.4-56.1-1.3-80.2c-15.7-24.1-60.7-87.7-96.2-96.2C255.3 585.9 242.9 635.6 242.9 635.6zM609.6 951.2c0 0-45 26.4-101.8 4.3 0 0-22.6-9.8-40.9-37.3-12-18-15.9-24.2-20.2-25 0 0-3.8-.4-8.1 2.4-16.2 10.4-12.1 128.7-10.6 162.7-4 .5-8 1-12 1.5-3.6-30.2-5.2-67.5-.5-109.7 2.5-22.8 6.5-43.5 11-61.9 0 0 3.5-20.5 12.2-22.1 8.7-1.6 26.1-2.9 57.4 10.2 31.3 13.1 34.8-5.7 76.1 9.4 41.3 15.2 56.5 38.1 60.9 54.1 4.3 16-5.7 33.6-5.7 33.6S628.7 962 609.6 951.2z"/><path fill="none" stroke="#529a74" stroke-miterlimit="10" stroke-width="3" d="M621.6,946.6c-2.5-5-14.5-15.7-70.6-13.2s-86.6-47.5-94.9-47.2"/><path fill="#feabb5" d="M444.3,1227.6H290c-6.2,0-11.2-5-11.2-11.2v-153c0-6.2,5-11.2,11.2-11.2h154.3c6.2,0,11.2,5,11.2,11.2v153   C455.6,1222.5,450.5,1227.6,444.3,1227.6z"/><path fill="#fe8d90" d="M313.7,1225.6c0.7-1.6,25.8-48,57.7-77c32-29,84.2-36.5,84.2-36.5l0.7,102.1c0,0-1,13-18.6,13.7L313.7,1225.6z   "/></g><g><path fill="#f1cfaa" d="M510.7,192.6H246.1c-10.6,0-19.3-8.6-19.3-19.3v-44c0-10.6,8.6-19.3,19.3-19.3h264.6   c10.6,0,19.3,8.6,19.3,19.3v44C530,184,521.3,192.6,510.7,192.6z"/><path fill="#f9ecdc" d="M501.2 145.4H319.4c-1.3 0-2.3-1-2.3-2.3v-9.6c0-1.3 1-2.3 2.3-2.3h181.8c1.3 0 2.3 1 2.3 2.3v9.6C503.5 144.4 502.4 145.4 501.2 145.4zM502.6 173.6H320.9c-1.3 0-2.3-1-2.3-2.3v-9.6c0-1.3 1-2.3 2.3-2.3h181.8c1.3 0 2.3 1 2.3 2.3v9.6C504.9 172.6 503.9 173.6 502.6 173.6z"/><ellipse cx="277.5" cy="153.4" fill="#faefe5" rx="29.6" ry="27.7"/><path fill="#e6b78b" d="M277.5,125.7v29.6l-29.4-4.1C248.2,151.1,249.3,127,277.5,125.7z"/></g><g><path fill="none" stroke="#e6b78b" stroke-miterlimit="10" stroke-width="4" d="M164.8 370.9c0 0 21.7-9.3 31.1-8.5s14.6 9.7 23.1 10.8c8.5 1.2 24.5-11.6 38.1-9.7 13.7 1.9 13.7 9.3 24 9.7 10.4.4 17.9-12.8 34.8-10.5 17 2.3 7.5 8.9 23.1 8.9s17.9-8.1 30.1-7 14.1 3.5 14.1 3.5M170.9 384c13.7-5 22.6-3.5 30.6-1.5 8 1.9 8 13.9 21.7 9.3 13.7-4.6 24-12.4 30.6-11.2 6.6 1.2 17.4 9.7 26.4 10.1 8.9.4 22.6-8.1 30.6-8.1 8 0 18.8 7.7 29.7 6.6 10.8-1.2 20.2-8.9 26.8-8.9s14.6 3.9 14.6 3.9"/></g><g><path fill="#f1cfaa" d="M1158,862.8h-65.9c-6.6,0-12-5.4-12-12v-81.1c0-6.6,5.4-12,12-12h65.9c6.6,0,12,5.4,12,12v81.1   C1170,857.4,1164.6,862.8,1158,862.8z"/><path fill="#f0512a" d="M1125.6,836.9c-20.4-15.2-31.4-32.2-27.1-42.3c1.3-3,5.1-8.2,11.2-9.2c7.9-1.3,13.9,5.2,14.5,5.9   c1.1-1.3,5.7-6.3,13.1-6.9c1.3-0.1,8.8-0.7,13.2,4.3c0,0,2.1,2.4,2.8,6.1C1154.9,802.8,1143.9,819.1,1125.6,836.9z"/></g><g><path fill="none" stroke="#e6b78b" stroke-miterlimit="10" stroke-width="4" d="M1243.3 594.8c0 0 21.7-9.3 31.1-8.5 9.4.8 14.6 9.7 23.1 10.8 8.5 1.2 24.5-11.6 38.1-9.7 13.7 1.9 13.7 9.3 24 9.7 10.4.4 17.9-12.8 34.8-10.5s7.5 8.9 23.1 8.9 17.9-8.1 30.1-7c12.2 1.2 14.1 3.5 14.1 3.5M1249.4 608c13.7-5 22.6-3.5 30.6-1.5 8 1.9 8 13.9 21.7 9.3 13.7-4.6 24-12.4 30.6-11.2s17.4 9.7 26.4 10.1 22.6-8.1 30.6-8.1c8 0 18.8 7.7 29.7 6.6s20.2-8.9 26.8-8.9 14.6 3.9 14.6 3.9"/><polygon fill="#e6b78b" points="1230.9 622.8 1213.4 614.1 1196.3 623.6 1199.1 604.3 1184.8 591 1204.1 587.7 1212.3 569.9 1221.4 587.2 1240.8 589.6 1227.1 603.6"/></g><g><circle cx="440.1" cy="578.8" r="40.4" fill="#f1cfaa"/><polygon fill="#fdaa40" points="461.4 593 445.5 590.7 434.5 602.4 431.8 586.6 417.2 579.8 431.5 572.3 433.4 556.4 444.9 567.6 460.7 564.5 453.6 578.9"/></g><g><path fill="#f1cfaa" d="M1330.9,443.5h-184.8c-11.8,0-21.3-9.5-21.3-21.3V230.9c0-11.8,9.5-21.3,21.3-21.3h184.8   c11.8,0,21.3,9.5,21.3,21.3v191.2C1352.2,433.9,1342.7,443.5,1330.9,443.5z"/><path fill="#dc952d" d="M1229.2,256.9c1,0.1-0.2-23.7-0.2-23.7l22.9,0.3l-0.1,24.8c0,0,15.3,2.3,20.7,6.9c5.4,4.7,7.9,7.6,7.9,7.6   l-19.7,20.4c0,0-16.1-14.1-32.3-2.9c0,0-8,16.7,6.8,21.3c0,0,16-0.4,26,3.2s31.4,19,24.5,47.5c-6.9,28.5-31.1,34.5-31.1,34.5   l-2.3,0.5l1.2,20.5c0,0-21.6,1.2-22.6,0.7s-0.4-22.9-0.4-22.9s-16.6-2-30.1-13.2l-4.6-6l21.2-20.7c0,0,10.8,13.3,28.9,12.2   c18.1-1.2,13.3-24.1,4.4-25.3c-8.9-1.2-37.7,0.6-51.1-27.8C1185.6,286.5,1212.1,256,1229.2,256.9z"/></g></svg>