<svg xmlns="http://www.w3.org/2000/svg" enable-background="new 0 0 1920 1080" viewBox="0 0 1920 1080"><path fill="#2a94f4" d="M1190.4 6.3c-173.5 0-327.3 83.3-422.6 211.7-50.2-20.9-105.3-32.4-163.2-32.4-232.6 0-421.1 186.3-421.1 416s188.5 416 421.1 416c98 0 188.2-33.1 259.8-88.6 89.5 70.4 202.8 112.4 326 112.4 289.3 0 523.9-231.7 523.9-517.6S1479.7 6.3 1190.4 6.3z" opacity=".1"/><ellipse cx="929.1" cy="996.5" fill="#2a94f4" opacity=".1" rx="735.6" ry="83.5"/><path fill="#0b4870" d="M375.1 197.9s9.1-5.8 6.5-19.6c-2.6-13.8-9.5-31.6-30.7-27.2s-20.3 8-28.5-.7c-8.2-8.6-36.5 11-30.1 20.4 3 4.5 4.3 13.1-8.1 18.3-12.4 5.2-13.7 36.4 10.4 33 6.1-.9 5.7 8.4 2.4 12-7.3 8 10.2 28.5 23.6 13.8 13.5-14.7 54.5-50 54.5-50z"/><path fill="#ffbe55" d="M451 1026.7h1055.3c38.1 0 68.9-30.9 68.9-68.9V373.7c0-38.1-30.9-68.9-68.9-68.9H451c-38.1 0-68.9 30.9-68.9 68.9v584.1c0 38 30.9 68.9 68.9 68.9z"/><path fill="#0e538c" d="M382.1 402.4h1193.2v168.4H382.1z" transform="rotate(-180 978.677 486.639)"/><path fill="#f7f7f7" d="M439.6 668.6h839.5v41.8H439.6z" transform="rotate(-180 859.359 689.463)"/><path fill="#f7f7f7" d="M439.6 745.4H1056V777H439.6z" transform="rotate(-180 747.823 761.134)"/><path fill="#f7f7f7" d="M439.6 811.9H1056v31.6H439.6z" transform="rotate(-180 747.823 827.679)"/><path fill="#fcd2b1" d="m369.1 947.9-4 35.4h-24.8v-40.1zM272.5 947.9l-4 35.4h-24.8v-40.1z"/><path fill="#f7d9c1" d="M352.8 261.1c-.8 11.8-5.7 22.1-10.9 22.6h-14.8c-5.2-.5-10.2-10.7-10.9-22.6-1.2-19.5 1.4-26.4.1-45.9-.8-11.7 41-24.3 40.2-12.6-1.2 19.5-2.4 39-3.7 58.5zM430.9 257.1s25.4 4 35.8 6.6c28.9 7.1 39.8 20.5 46.8 26.9 7 6.4-8.4 7.2-16.2 13-7.8 5.8-71.1-11-84.4-18.7-13.2-7.8 9.4-27.8 18-27.8z"/><path fill="#2a94f4" d="M337.7 277.8c18.1-3.9 15.1-21.5 15.1-21.5s44.5-9.6 68.7-3.9c24.2 5.7 35.1 8.8 37.4 9.6 2.3.8-18.7 3.5-25.7 28.8s-8.8 29.4-8.8 29.4l-16.2-2.4S397.5 522 393.6 541.6c-3.9 19.6-85.6 26.2-119.5 6.9 0 0-3-81.5-3-192.7l-1.6-91.1s38-3.5 46.6-3.5c.1-.1-.3 21.3 21.6 16.6z"/><path fill="#ffe3ca" d="M509.3 286.6c-8.9-6.6-16.9-5.3-46.8 4-39.8 12.4-53 17.4-59.1 20-6.1 2.7-9.8 11.3-12.9 21.3-3.1 10 2.2 16.4 2.2 18.5 0 1.3 8.2 5.1 14.3 5.3 3.7.1 5.2-5.3 2-19.4-4.4-19.4 62.4-20.6 71.7-21.9 9-1.3 49.5-12.2 28.6-27.8zM193.6 430.5c0-24.3 37.9-99.9 37.9-99.9 0-.2.1-.3.1-.5v-.1c0-.1.1-.2.1-.3 0 0 0-.1.1-.1 0-.1.1-.1.1-.2l.1-.1.1-.1s.1 0 .1-.1c.1 0 .1-.1.2-.1H233.3c.1 0 .1 0 .2.1.1 0 .1 0 .2.1.1 0 .2.1.2.1.1 0 .1.1.2.1s.2.1.3.1c.1 0 .2.1.2.1.1.1.2.1.3.2.1.1.2.1.2.2.1.1.2.1.3.2.1.1.2.1.3.2.1.1.2.2.3.2.1.1.2.1.3.2l.3.3c.1.1.2.2.3.2l.3.3.3.3c.1.1.2.2.4.3l.3.3.4.4.3.3.4.4.3.3c.1.2.3.3.4.5l.3.3c.1.2.3.3.4.5l.3.3c.2.2.3.4.5.6l.3.3c.2.2.3.4.5.6.1.1.1.2.2.3.2.2.4.5.6.7.1.1.1.2.2.2.2.3.4.5.6.8 0 .1.1.1.1.2.2.3.5.6.7 1 9.6 12.9 14.5 25.6 10.8 31.3-5 7.8-32.9 47.3-26.5 61.5 6.4 14.3 45.4 72.5 45.4 72.5l-5.9 18.2c-.1.2-74.9-59.4-74.9-93.2z"/><path fill="#2a94f4" d="M278.9 266.7s-13-14.2-31.4 21.1c-11 21.1-20.3 42.9-27.6 62.3 0 0 28.3 48 40.8 27.5 3.6-5.9 13.1-19.9 15.8-26.4 15.8-39 2.4-84.5 2.4-84.5z"/><path fill="#ffe3ca" d="M367.4 170.8c4.2 6.3 6.1 26.6 4.7 35.2-5.2 32.9-18.5 54.8-55.2 27.1-7.9-6-8.7-17.6-10-19.3-1.3-1.7-10.8-4.3-9.9-17.3s9.8-6.3 11.5 2.9l4.6 7.8c.4.6 1 1 1.7 1.1 1.4.1 2.6-1.2 2.3-2.6l-3.1-13.8s13 5.3 17.9-6.5c4.9-11.8 20.8 10.4 27.4-5.2l8.1-9.4z"/><path fill="#0b4870" d="M336.6 979.8h3.7s13.7 6.7 25.2 0h5l2.6 7.6s5.1 11.1 25.5 5.2c13.7-4 20.8 10.6 21.2 24.4h-83.2v-37.2zM239.7 979.8h3.7s13.7 6.7 25.2 0h5l2.6 7.6s5.1 11.1 25.5 5.2c13.7-4 20.8 10.6 21.2 24.4h-83.2v-37.2zM397.2 513.8s1.3 218.4-2.2 271.6c-3.5 53.2-22.5 170.4-22.5 170.4h-36.4s10-163.9 10-179.5-14.3-155.1-28.1-157.9c-13-2.6-12.7 111.5-13.4 158.2-.7 46.7-30.4 179.1-30.4 179.1h-34.4s18.8-126.4 15.6-186c-1.7-32.5-3.8-85.7-3.3-139.2.4-44.6 21.4-112.3 21.4-112.3l123.7-4.4z"/><path fill="#ffe3ca" d="M272.8 495.4c3.2 1.2 3 1 3 1s30.4 18.6 11.7 38.8c-6.4 6.9-15.3 1.8-18.6-6l-1.8-4.3c0-.1 2.6-30.8 5.7-29.5z"/></svg>