<svg xmlns="http://www.w3.org/2000/svg" data-name="Layer 1" viewBox="0 0 700 550"><defs><clipPath id="a"><circle cx="269.965" cy="229.884" r="19.98" fill="none"/></clipPath><clipPath id="b"><circle cx="398.547" cy="381.29" r="19.98" fill="none"/></clipPath><clipPath id="c"><circle cx="201.316" cy="404.692" r="19.98" fill="none"/></clipPath><clipPath id="d"><circle cx="382.515" cy="264.624" r="12.095" fill="none"/></clipPath><clipPath id="e"><circle cx="206.799" cy="292.855" r="12.095" fill="none"/></clipPath></defs><path fill="#f7f9f9" d="M594.295 248.635c33.03 28.439 27.719 91.112 14.934 127.735-3.401 9.74-23.594 67.577-72.109 81.904-50.732 14.983-73.619-34.976-140.821-36.486-74.903-1.684-89.715 59.405-154 58.194-70.923-1.337-166.468-77.832-161.23-177.206 4.083-77.422 68.269-148.43 129.262-151.223 68.7-3.146 79.752 82.71 175.316 106.524 99.1 24.697 162.996-48.746 208.648-9.442"/><path fill="#f7f9f9" d="M324.118 155.587c-7.282 14.66 45.659 70.605 114.349 78.475 36.176 4.144 84.98-4.1 86.322-17.938 2.718-28.023-188.662-84.712-200.671-60.538"/><path fill="#4ca258" d="m365.838 195.743 45.248 18.613-29.386 71.436-45.248-18.613z"/><path fill="#81c56d" d="m368.312 202.641 36.16 14.875-23.484 57.09-36.16-14.875z"/><path fill="#4ca258" d="m365.837 195.745-4.203 10.218A10.856 10.856 0 0 0 375.669 200l.074-.181ZM411.084 214.358l-4.204 10.218a10.856 10.856 0 0 1-5.777-14.112l.075-.181Z"/><circle cx="377.018" cy="232.866" r="10.092" fill="#4ca258"/><path fill="#4ca258" d="m179.37 202.382 48.923-.467.738 77.24-48.924.468z"/><path fill="#81c56d" d="m184.334 207.772 39.098-.373.59 61.728-39.098.373z"/><path fill="#4ca258" d="m179.37 202.383.105 11.048a10.856 10.856 0 0 0 10.607-10.954l-.001-.197ZM228.293 201.915l.105 11.049a10.856 10.856 0 0 1-10.815-10.75l-.001-.196Z"/><circle cx="204.118" cy="232.224" r="10.092" fill="#4ca258"/><path fill="#ffcb5c" d="M558.538 413.745c-8.565-16.548-39.577-75.987-46.093-81.807l10.585-26.175c4.351-10.76-2.808-23.076-14.39-23.859q-.61-.041-1.232-.041h-1.29c-1.388-8.805-5.244-15.148-9.794-15.148H467.35c-4.55 0-8.406 6.343-9.794 15.148h-.544q-.622 0-1.233.041c-11.58.783-18.74 13.098-14.39 23.859l10.586 26.175-44.497 80.542a44.386 44.386 0 0 0-3.906 34.546c5.263 16.903 20.325 30.202 39.76 30.99q.944.038 1.899.038h74.7q.954 0 1.9-.038c24.285-.985 41.742-21.505 41.786-44.183a43.672 43.672 0 0 0-5.079-20.088Z"/><path fill="#f29720" d="M448.939 283.79c2.468 15.82 19.325 46.731 19.325 46.731-6.537-20.23-10.708-48.658-10.708-48.658h-.544a17.904 17.904 0 0 0-8.073 1.927ZM514.511 283.776c.024-.15.037-.28.058-.425a17.933 17.933 0 0 0-7.161-1.488h-1.29l-.041-.227-.186.227s-4.17 28.427-10.707 48.658c0 0 16.866-30.93 19.327-46.745ZM514.57 377.252c-2.468-15.82-19.325-46.73-19.325-46.73 6.536 20.23 10.707 48.658 10.707 48.658h.545a17.904 17.904 0 0 0 8.072-1.928ZM448.997 377.267c-.023.15-.037.28-.058.425a17.933 17.933 0 0 0 7.161 1.488h1.29c.013.077.029.15.041.227l.187-.227s4.17-28.427 10.706-48.659c0 0-16.866 30.93-19.327 46.746Z"/><path fill="#32333c" d="M482.645 338.256h-.937a286.142 286.142 0 0 1-32.553-1.974 3.89 3.89 0 0 1-3.38-4.38 3.889 3.889 0 0 1 4.328-3.342 277.399 277.399 0 0 0 65.097-.001 3.894 3.894 0 0 1 4.333 3.346 3.888 3.888 0 0 1-3.378 4.378 286.572 286.572 0 0 1-33.51 1.973ZM471.42 424.42a19.031 19.031 0 0 0 9.63 2.717c5.493 0 8.702-2.901 8.702-7.098 0-3.889-2.223-6.111-7.84-8.272-6.787-2.406-10.986-5.925-10.986-11.79 0-6.479 5.37-11.294 13.456-11.294a18.927 18.927 0 0 1 9.198 2.036l-1.483 4.384a16.545 16.545 0 0 0-7.9-1.976c-5.678 0-7.84 3.395-7.84 6.234 0 3.889 2.532 5.802 8.271 8.024 7.038 2.716 10.617 6.111 10.617 12.22 0 6.42-4.754 11.975-14.565 11.975-4.014 0-8.394-1.171-10.617-2.654Z"/><path fill="#32333c" d="M480.854 381.383h4.798v57.795h-4.798z"/><circle cx="115.499" cy="214.303" r="31.93" fill="#ffcb5c"/><path fill="#f29720" d="M109.272 223.619a10.854 10.854 0 0 0 5.492 1.549c3.133 0 4.963-1.655 4.963-4.048 0-2.218-1.267-3.486-4.47-4.718-3.872-1.372-6.266-3.379-6.266-6.724 0-3.695 3.062-6.441 7.674-6.441a10.794 10.794 0 0 1 5.246 1.161l-.846 2.5a9.436 9.436 0 0 0-4.506-1.127c-3.238 0-4.47 1.937-4.47 3.556 0 2.218 1.443 3.308 4.716 4.576 4.014 1.549 6.055 3.485 6.055 6.97 0 3.66-2.71 6.829-8.307 6.829a12.25 12.25 0 0 1-6.054-1.514Z"/><path fill="#f29720" d="M114.653 199.073h2.736v32.961h-2.736z"/><path fill="#f29720" d="M96.488 214.303a31.94 31.94 0 0 1 25.47-31.275 31.93 31.93 0 1 0 0 62.55 31.94 31.94 0 0 1-25.47-31.275Z"/><path fill="#ffcb5c" d="M115.153 185.253a31.439 31.439 0 0 0-3.782 2.051H98.446c.56-.355 1.128-.69 1.71-1.012l2.072-1.04ZM106.645 190.95a29.962 29.962 0 0 0-2.01 2.05H91.717q.954-1.066 2.003-2.05ZM99.793 200.147q-.503 1.006-.923 2.052H85.952q.42-1.046.923-2.052ZM96.825 209.68c-.102.677-.178 1.361-.232 2.052H83.675c.054-.69.13-1.375.232-2.052ZM97.755 223.228H84.837c-.198-.67-.37-1.354-.52-2.052h12.918c.151.698.322 1.375.52 2.052ZM103.199 233.896H90.287a31.095 31.095 0 0 1-1.47-2.052h12.918c.458.705.95 1.389 1.464 2.052ZM100.744 242.629h12.932a31.668 31.668 0 0 1-3.406-2.052H97.352Z"/><circle cx="335.07" cy="184.847" r="15.23" fill="#ffcb5c"/><path fill="#f29720" d="M332.1 189.29a5.169 5.169 0 0 0 2.619.739c1.494 0 2.367-.788 2.367-1.93 0-1.057-.605-1.662-2.132-2.249-1.847-.655-2.988-1.611-2.988-3.206 0-1.762 1.46-3.071 3.659-3.071a5.141 5.141 0 0 1 2.5.554l-.402 1.191a4.51 4.51 0 0 0-2.148-.537c-1.544 0-2.132.923-2.132 1.695 0 1.058.689 1.578 2.25 2.182 1.913.74 2.886 1.662 2.886 3.323 0 1.746-1.292 3.257-3.961 3.257a5.852 5.852 0 0 1-2.887-.722Z"/><path fill="#f29720" d="M334.668 177.582h1.305v15.722h-1.305z"/><path fill="#f29720" d="M326.002 184.847a15.235 15.235 0 0 1 12.15-14.918 15.23 15.23 0 1 0 0 29.835 15.235 15.235 0 0 1-12.15-14.917Z"/><path fill="#ffcb5c" d="M334.905 170.99a14.996 14.996 0 0 0-1.803.979h-6.165c.267-.17.538-.33.815-.483l.988-.496ZM330.848 173.708c-.333.31-.656.636-.96.978h-6.161c.303-.34.623-.665.956-.978ZM327.58 178.095q-.24.48-.441.978h-6.162q.2-.499.44-.978ZM326.164 182.642c-.05.323-.085.649-.111.978h-6.162c.026-.33.062-.655.11-.978ZM326.607 189.104h-6.162c-.094-.32-.176-.646-.247-.979h6.161c.072.333.154.656.248.979ZM329.204 194.192h-6.159c-.248-.316-.48-.642-.701-.978h6.162c.218.336.453.662.698.978ZM328.033 198.358h6.168a15.104 15.104 0 0 1-1.625-.979h-6.161Z"/><circle cx="129.051" cy="336.157" r="15.23" fill="#ffcb5c"/><path fill="#f29720" d="M126.082 340.6a5.169 5.169 0 0 0 2.618.739c1.494 0 2.367-.789 2.367-1.93 0-1.058-.604-1.662-2.132-2.25-1.846-.654-2.988-1.61-2.988-3.205 0-1.763 1.461-3.071 3.66-3.071a5.141 5.141 0 0 1 2.5.553l-.402 1.192a4.51 4.51 0 0 0-2.149-.537c-1.544 0-2.131.922-2.131 1.695 0 1.057.688 1.578 2.249 2.182 1.914.739 2.886 1.662 2.886 3.323 0 1.746-1.292 3.257-3.96 3.257a5.852 5.852 0 0 1-2.887-.722Z"/><path fill="#f29720" d="M128.648 328.893h1.305v15.722h-1.305z"/><path fill="#f29720" d="M119.984 336.157a15.235 15.235 0 0 1 12.148-14.918 15.23 15.23 0 1 0 0 29.835 15.235 15.235 0 0 1-12.148-14.917Z"/><path fill="#ffcb5c" d="M128.887 322.3a14.997 14.997 0 0 0-1.804.979h-6.165c.267-.17.538-.33.815-.483l.989-.496ZM124.829 325.018c-.333.31-.656.636-.96.978h-6.161c.303-.34.623-.665.956-.978ZM121.56 329.405q-.24.48-.44.978h-6.162q.2-.499.44-.978ZM120.145 333.952c-.05.323-.085.649-.111.978h-6.162c.026-.329.062-.655.11-.978ZM120.588 340.414h-6.161c-.095-.32-.177-.646-.248-.979h6.161c.072.333.154.656.248.979ZM123.185 345.502h-6.159c-.248-.316-.48-.642-.701-.978h6.162c.218.336.453.662.698.978ZM122.014 349.668h6.168a15.105 15.105 0 0 1-1.624-.979h-6.162Z"/><circle cx="114.976" cy="434.191" r="31.93" fill="#ffcb5c"/><path fill="#f29720" d="M108.75 443.507a10.853 10.853 0 0 0 5.491 1.548c3.133 0 4.964-1.654 4.964-4.047 0-2.218-1.268-3.486-4.47-4.718-3.873-1.372-6.266-3.38-6.266-6.724 0-3.695 3.062-6.441 7.673-6.441a10.793 10.793 0 0 1 5.245 1.16l-.844 2.5a9.443 9.443 0 0 0-4.506-1.126c-3.24 0-4.47 1.936-4.47 3.556 0 2.217 1.443 3.308 4.716 4.576 4.013 1.549 6.055 3.485 6.055 6.97 0 3.66-2.711 6.829-8.308 6.829a12.253 12.253 0 0 1-6.055-1.514Z"/><path fill="#f29720" d="M114.131 418.961h2.736v32.961h-2.736z"/><path fill="#f29720" d="M95.965 434.19a31.94 31.94 0 0 1 25.47-31.275 31.93 31.93 0 1 0 0 62.55 31.94 31.94 0 0 1-25.47-31.274Z"/><path fill="#ffcb5c" d="M114.63 405.14a31.438 31.438 0 0 0-3.782 2.052H97.923c.561-.356 1.129-.69 1.71-1.012l2.072-1.04ZM106.123 410.837a29.962 29.962 0 0 0-2.01 2.052H91.193a33.35 33.35 0 0 1 2.004-2.052ZM99.27 420.035q-.502 1.005-.923 2.052H85.43q.42-1.047.923-2.052ZM96.303 429.568c-.103.677-.178 1.361-.233 2.052H83.152c.054-.691.13-1.375.232-2.052ZM97.233 443.115H84.314c-.198-.67-.369-1.354-.52-2.051h12.919c.15.697.321 1.374.52 2.051ZM102.676 453.784H89.765a31.095 31.095 0 0 1-1.47-2.052h12.918c.458.705.95 1.388 1.463 2.052ZM100.221 462.517h12.932a31.667 31.667 0 0 1-3.406-2.052H96.83Z"/><circle cx="457.803" cy="223.896" r="31.93" fill="#ffcb5c"/><path fill="#f29720" d="M451.577 233.212a10.853 10.853 0 0 0 5.491 1.549c3.133 0 4.964-1.654 4.964-4.048 0-2.218-1.268-3.485-4.47-4.718-3.873-1.372-6.266-3.379-6.266-6.723 0-3.696 3.062-6.442 7.673-6.442a10.793 10.793 0 0 1 5.246 1.161l-.845 2.5a9.443 9.443 0 0 0-4.506-1.127c-3.24 0-4.47 1.937-4.47 3.556 0 2.218 1.443 3.309 4.716 4.576 4.013 1.55 6.055 3.486 6.055 6.97 0 3.661-2.711 6.83-8.308 6.83a12.253 12.253 0 0 1-6.055-1.515Z"/><path fill="#f29720" d="M456.958 208.666h2.736v32.961h-2.736z"/><path fill="#f29720" d="M438.792 223.896a31.94 31.94 0 0 1 25.47-31.275 31.93 31.93 0 1 0 0 62.55 31.94 31.94 0 0 1-25.47-31.275Z"/><path fill="#ffcb5c" d="M457.457 194.846a31.44 31.44 0 0 0-3.781 2.051H440.75c.56-.355 1.128-.69 1.71-1.012l2.071-1.04ZM448.95 200.542a29.962 29.962 0 0 0-2.01 2.052H434.02a33.352 33.352 0 0 1 2.004-2.052ZM442.098 209.74q-.503 1.006-.923 2.052h-12.919q.421-1.046.924-2.052ZM439.13 219.273c-.103.677-.178 1.361-.233 2.052H425.98c.055-.69.13-1.375.233-2.052ZM440.06 232.82h-12.918c-.199-.67-.37-1.353-.52-2.05h12.918c.15.697.322 1.374.52 2.05ZM445.503 243.49h-12.91a31.095 31.095 0 0 1-1.471-2.053h12.918c.458.705.95 1.389 1.463 2.052ZM443.048 252.222h12.932a31.667 31.667 0 0 1-3.405-2.052h-12.919Z"/><path fill="#585a66" d="M404.972 434.364H154.308a9.953 9.953 0 0 1-10.027-9.856V261.344a9.953 9.953 0 0 1 10.027-9.855h250.664A9.953 9.953 0 0 1 415 261.344v163.164a9.953 9.953 0 0 1-10.027 9.856Zm-239.55-10.951h238.436V262.439H165.422Z"/><rect width="255.148" height="171.924" x="166.883" y="256.964" fill="#71b8e6" rx="4.38"/><path fill="#9fb1c1" d="M245.89 427.502a37.878 37.878 0 0 1-37.879 37.878h143.714a37.878 37.878 0 0 1-37.878-37.878Z"/><path fill="#4b9dd7" d="M181.667 257.515c-.405 5.749-.69 12.538-.614 20.17a244.32 244.32 0 0 0 53.724 151.206h-63.513a4.379 4.379 0 0 1-4.38-4.38V261.347a4.38 4.38 0 0 1 4.38-4.38h250.768v.548Z"/><path fill="#d6e4f0" d="M263.248 428.888a37.232 37.232 0 0 1-37.231 37.232h141.262a37.232 37.232 0 0 1-37.232-37.232Z"/><path fill="#ddd" d="M365.136 466.12h2.143c-.755 0-1.502-.03-2.246-.073.034.025.07.048.103.073Z"/><path fill="#b1c5da" d="m285.12 444.029 45.61-8.045a37.402 37.402 0 0 1-.683-7.096h-66.799a37.232 37.232 0 0 1-37.232 37.232h41.565c-1.558-8.86 1.268-13.846 6.687-17.698a26.651 26.651 0 0 1 10.851-4.393Z"/><path fill="#9fb1c1" d="M208.011 465.38h158.286a2 2 0 0 1 2 2v10.674H206.01V467.38a2 2 0 0 1 2-2Z"/><path fill="#32333c" d="M417.652 434.364H171.264a9.867 9.867 0 0 1-9.856-9.856V261.344a9.867 9.867 0 0 1 9.856-9.855h246.388a9.867 9.867 0 0 1 9.855 9.855v163.164a9.867 9.867 0 0 1-9.855 9.856Zm-245.293-10.951h244.198V262.439H172.359Z"/><path fill="#32333c" d="m388.34 376.032-36.318-12.106a61.669 61.669 0 0 0-9.456-50.757l34.452-43.543-6.273-4.964-33.348 42.148a61.515 61.515 0 0 0-56.19-18.665l-5.849-52.465-7.951.887 5.968 53.53a61.762 61.762 0 0 0-31.83 23.669l-32.505-21.987-4.483 6.626 32.873 22.236a61.59 61.59 0 0 0 1.197 58.482l-38.61 20.988 3.821 7.029 39.184-21.301a61.634 61.634 0 0 0 106.525-14.305l36.264 12.088Z"/><circle cx="292.268" cy="348.774" r="53.603" fill="#ffcb5c"/><path fill="#f29720" d="M281.815 364.412a18.224 18.224 0 0 0 9.221 2.6c5.26 0 8.335-2.777 8.335-6.797 0-3.724-2.128-5.852-7.507-7.92-6.503-2.305-10.521-5.674-10.521-11.29 0-6.206 5.142-10.817 12.886-10.817a18.104 18.104 0 0 1 8.806 1.95l-1.418 4.197a15.874 15.874 0 0 0-7.566-1.89c-5.438 0-7.507 3.25-7.507 5.969 0 3.724 2.424 5.556 7.92 7.684 6.739 2.6 10.167 5.852 10.167 11.703 0 6.148-4.551 11.467-13.95 11.467-3.841 0-8.038-1.122-10.166-2.541Z"/><path fill="#f29720" d="M290.849 323.206h4.593v55.336h-4.593z"/><path fill="#f29720" d="M260.352 348.774a53.621 53.621 0 0 1 42.76-52.506 53.604 53.604 0 1 0 0 105.01 53.621 53.621 0 0 1-42.76-52.504Z"/><path fill="#ffcb5c" d="M291.687 300.004a52.78 52.78 0 0 0-6.349 3.444H263.64a55.545 55.545 0 0 1 2.87-1.7l3.48-1.744ZM277.405 309.567a50.297 50.297 0 0 0-3.375 3.444h-21.688a56.004 56.004 0 0 1 3.364-3.444ZM265.901 325.009q-.844 1.688-1.55 3.444h-21.687q.706-1.756 1.55-3.444ZM260.919 341.013a48.551 48.551 0 0 0-.39 3.444H238.84a48.55 48.55 0 0 1 .39-3.444ZM262.48 363.756h-21.687a47.15 47.15 0 0 1-.873-3.444h21.687c.253 1.171.54 2.308.873 3.444ZM271.619 381.666h-21.676a52.207 52.207 0 0 1-2.468-3.444h21.687a51.974 51.974 0 0 0 2.457 3.444ZM267.497 396.327h21.71a53.16 53.16 0 0 1-5.717-3.444h-21.687Z"/><circle cx="269.965" cy="229.884" r="24.78" fill="#ef403a"/><circle cx="269.965" cy="229.884" r="19.98" fill="#ef403a"/><g fill="#32333c" clip-path="url(#a)"><circle cx="270.727" cy="223.546" r="8.662"/><path d="M270.727 234.046a20.484 20.484 0 0 0-20.484 20.484h40.968a20.484 20.484 0 0 0-20.484-20.484Z"/></g><circle cx="398.547" cy="381.29" r="24.78" fill="#ef403a"/><circle cx="398.547" cy="381.29" r="19.98" fill="#ef403a"/><g fill="#32333c" clip-path="url(#b)"><circle cx="399.31" cy="374.952" r="8.662"/><path d="M399.31 385.453a20.484 20.484 0 0 0-20.484 20.484h40.968a20.484 20.484 0 0 0-20.484-20.484Z"/></g><circle cx="201.316" cy="404.692" r="24.78" fill="#ef403a"/><circle cx="201.316" cy="404.692" r="19.98" fill="#ef403a"/><g fill="#32333c" clip-path="url(#c)"><circle cx="202.079" cy="398.354" r="8.662"/><path d="M202.079 408.854a20.484 20.484 0 0 0-20.485 20.484h40.969a20.484 20.484 0 0 0-20.484-20.484Z"/></g><circle cx="382.515" cy="264.624" r="15.001" fill="#ef403a"/><circle cx="382.515" cy="264.624" r="12.095" fill="#ef403a"/><g fill="#32333c" clip-path="url(#d)"><circle cx="382.977" cy="260.787" r="5.244"/><path d="M382.977 267.143a12.4 12.4 0 0 0-12.4 12.4h24.8a12.4 12.4 0 0 0-12.4-12.4Z"/></g><circle cx="206.799" cy="292.855" r="15.001" fill="#ef403a"/><circle cx="206.799" cy="292.855" r="12.095" fill="#ef403a"/><g fill="#32333c" clip-path="url(#e)"><circle cx="207.261" cy="289.019" r="5.244"/><path d="M207.26 295.375a12.4 12.4 0 0 0-12.4 12.4h24.8a12.4 12.4 0 0 0-12.4-12.4Z"/></g><path fill="#222328" d="M114.718 478h5.385v4h-5.385zM122.982 478h275.681v4H122.982zM402.503 478h167.358v4H402.503zM575.302 478h9.981v4h-9.981z"/></svg>